<?xml version="1.0" encoding="utf-8"?>
<!-- Generator: Adobe Illustrator 16.0.0, SVG Export Plug-In . SVG Version: 6.00 Build 0)  -->
<!DOCTYPE svg PUBLIC "-//W3C//DTD SVG 1.1//EN" "http://www.w3.org/Graphics/SVG/1.1/DTD/svg11.dtd">
<svg version="1.1" id="图层_3" xmlns="http://www.w3.org/2000/svg" xmlns:xlink="http://www.w3.org/1999/xlink" x="0px" y="0px"
	 width="192px" height="192px" viewBox="0 0 192 192" enable-background="new 0 0 192 192" xml:space="preserve">
<path fill="#FBBC05" d="M160.75,20H31.25C25.035,20,20,25.035,20,31.25v129.5c0,6.216,5.034,11.25,11.25,11.25h129.5
	c6.215,0,11.25-5.034,11.25-11.25V31.25C172,25.035,166.965,20,160.75,20z"/>
<rect x="32.25" y="32.25" fill="#3385FF" width="126.751" height="126.75"/>
<g>
	<path fill="#FFFFFF" d="M115.385,83.735c0,10.932-8.851,19.735-19.734,19.735c-10.886,0-19.736-8.828-19.736-19.735
		C75.914,72.851,84.765,64,95.65,64C106.534,64,115.385,72.849,115.385,83.735z"/>
	<path fill="#FFFFFF" d="M56.156,136.384c0-13.156,26.313-20.396,39.468-20.396c13.159,0,39.471,7.239,39.471,20.396v6.579H56.156
		V136.384z"/>
</g>
</svg>
